<svg xmlns="http://www.w3.org/2000/svg" viewBox="0 0 189.38 316.61"><title>FINOS_Icon_RGB</title><polyline points="189.38 0 189.38 75.3 0 135.92 0 60.83 189.2 0.06" fill="#00b5e2"/><polygon points="0 183.38 0 316.61 73.62 316.61 73.62 234.86 189.38 197.84 189.38 122.76 0 183.38" fill="#00b5e2"/><path d="M374,296.49a.36.36,0,0,0-.1-.24.38.38,0,0,0-.14-.08l-72.86-23.32L184.6,310.06v.39a.35.35,0,0,0,.1.24.42.42,0,0,0,.13.08l72.91,23.34L374,296.9Z" transform="translate(-184.6 -174.15)" fill="#0086bf"/></svg>